<svg id="Layer_1" data-name="Layer 1" xmlns="http://www.w3.org/2000/svg" viewBox="0 0 16 16"><defs><style>.cls-1{fill:#fff;}.cls-2{fill:#999;}.cls-3{fill:#639;}</style></defs><title>mimetypes-x-content-gallerycontent</title><path class="cls-1" d="M1,1H15V15H1Z"/><path class="cls-2" d="M1,1V15H15V1ZM2,2H14V14H2Z"/><path class="cls-3" d="M3,10.23H5.71v2.71H3Z"/><path class="cls-3" d="M3,6.57H5.71V9.28H3Z"/><path class="cls-3" d="M3,3H5.71V5.71H3Z"/><path class="cls-3" d="M6.64,6.57H9.36V9.28H6.64Z"/><path class="cls-3" d="M6.64,3H9.36V5.71H6.64Z"/><path class="cls-3" d="M6.64,10.23H9.36v2.71H6.64Z"/><path class="cls-3" d="M10.29,6.57H13V9.28H10.29Z"/><path class="cls-3" d="M10.29,3H13V5.71H10.29Z"/><path class="cls-3" d="M10.29,10.23H13v2.71H10.29Z"/></svg>